<?xml version="1.0" encoding="utf-8"?>
<!-- Generator: Adobe Illustrator 23.0.3, SVG Export Plug-In . SVG Version: 6.00 Build 0)  -->
<svg version="1.2" baseProfile="tiny" id="Layer_1" xmlns="http://www.w3.org/2000/svg" xmlns:xlink="http://www.w3.org/1999/xlink"
	 x="0px" y="0px" viewBox="0 0 1000 184.2" xml:space="preserve">
<path fill="#0078D4" d="M361.1,147h-22.7l-22.2-84.4L293.8,147h-23.2L240.1,37.3h20.6l22,87.3l24-87.3h20.8l22.6,87.8L371,37.3h19.9
	L361.1,147z"/>
<path fill="#0078D4" d="M420,45.3c0,3-1.1,5.4-3.3,7.4c-2.1,2-4.7,3-7.8,3c-3.1,0-5.7-1-7.8-3c-2.1-2-3.2-4.4-3.2-7.4
	c0-3,1.1-5.5,3.2-7.6c2.2-2,4.8-3,7.8-3c3.2,0,5.8,1,7.9,3.1C419,39.9,420,42.4,420,45.3L420,45.3z M399.5,147v-79h18.4v79H399.5z"
	/>
<path fill="#0078D4" d="M488.8,147v-44c0-11.5-3.6-21.5-15.2-21.5c-11.6,0-18.9,10.4-18.9,20.9V147h-18v-79h18v11.2h0.3
	c6-9.3,14.6-12.5,25.9-12.5c8.5,0,15,2.1,19.7,7.5c4.7,5.4,6.7,13.6,6.7,24.7V147L488.8,147z"/>
<path fill="#0078D4" d="M579.3,147v-10.2H579c-5.7,9.6-17.4,11.8-25.5,11.8c-24.2,0-33.1-18.8-33.1-38.8c0-13.3,3.3-23.9,9.9-31.8
	c6.7-8,15.6-11.5,26.7-11.5c17.3,0,22,9.6,22,9.6h0.3V30.4H598V147L579.3,147z M579.5,101.9c0-9.5-6.1-20.4-19.1-20.4
	c-14.8,0-20.6,12.9-20.6,27.8c0,13,5.4,24.7,19.5,24.9c13.8,0,20-13.2,20.1-24.1L579.5,101.9z"/>
<path fill="#0078D4" d="M692.4,107.1c0,27.4-16.4,42.2-40.9,42.2c-26.7,0-40.4-16-40.4-40.5c0-28,16.4-42.6,42.4-42.6
	C677.2,66.2,692.4,81.4,692.4,107.1z M673.2,107.7c0-12.2-4.3-25.7-20.8-25.7c-15.8,0-22,11.8-22,26.2c0,15.7,7.4,25.6,21.8,25.6
	C667.7,133.8,673.1,121.9,673.2,107.7L673.2,107.7z"/>
<path fill="#0078D4" d="M791.3,147h-20.3l-15.5-57.2L738.7,147H719l-23-78.8h19.3l15,61.2l17.6-61.2h18.1l15.7,61.1l14.6-61.1h17.7
	L791.3,147z"/>
<path fill="#0078D4" d="M871.8,125c0,17.6-16,24.5-32,24.5c-10.4,0-20.8-4-20.8-4v-18.7c0,0,9,7.9,21.6,8c8.6,0,12.5-2.7,12.5-7.9
	c0.2-4.2-2.3-6.5-5.3-8.2c-2.1-1.2-5.3-2.8-9.8-4.6c-5.2-2.2-9.1-4.4-11.6-6.5c-2.5-2.1-4.4-4.5-5.6-7.3c-1.2-2.8-2.1-5.9-2.1-9.6
	c0-14.2,11.9-24.3,30.8-24.3c12.5,0,17.9,3.1,17.9,3.1v17.8c0,0-8.9-6.2-18.1-6.2c-6.6,0-11.6,2.4-11.7,7.9c0,7,8.6,10.5,13.7,12.5
	c7.5,3,13,6.2,16,9.9S871.8,118.7,871.8,125L871.8,125z"/>
<path fill="#0078D4" d="M944.3,34.1V147h-18.9v-90c0,0-6.5,6-23.1,10.3V51.2c24.7-9.1,33.5-17.1,33.5-17.1L944.3,34.1z"/>
<rect fill="#0078D4" width="87.3" height="87.3"/>
<rect x="96.9" fill="#0078D4" width="87.3" height="87.3"/>
<rect y="96.9" fill="#0078D4" width="87.3" height="87.3"/>
<rect x="96.9" y="96.9" fill="#0078D4" width="87.3" height="87.3"/>
<path fill="#0078D4" d="M1000,34.1V147h-18.9v-90c0,0-6.5,6-23.1,10.3V51.2c24.7-9.1,33.5-17.1,33.5-17.1L1000,34.1z"/>
</svg>
